<?xml version="1.0" encoding="UTF-8"?>
<svg height="309" version="1.1" width="338" xmlns="http://www.w3.org/2000/svg" xmlns:xlink="http://www.w3.org/1999/xlink"><g id="dp_dp001" transform="matrix(1,0,0,1,-1704.27,-653.872)"><path d="M 1967.6,789.141 C 1967.6,860.267 1910,917.925 1838.95,917.925 C 1767.89,917.925 1710.29,860.267 1710.29,789.141 C 1710.29,718.015 1767.89,660.356 1838.95,660.356 C 1910,660.356 1967.6,718.015 1967.6,789.141 Z " fill="none" fill-rule="evenodd" id="dp_path002" stroke="black" stroke-linecap="round" stroke-linejoin="round" stroke-width="12"/><path d="M 1941.7,871.213 L 2033.71,954.504" fill="none" fill-rule="evenodd" id="dp_path003" stroke="black" stroke-linecap="round" stroke-linejoin="round" stroke-width="17.3333"/><path d="M 1736.21,808.931 C 1734.86,804.243 1736.09,789.705 1742.68,787.547 C 1786.38,773.212 1850.71,729.473 1895.61,754.523 C 1908.41,761.659 1926.14,770.652 1942.17,773.243" fill="none" fill-rule="evenodd" id="dp_path004" stroke="black" stroke-linecap="round" stroke-linejoin="round" stroke-width="12"/><path d="M 1777.25,799.243 C 1786.09,799.243 1793.25,806.407 1793.25,815.243 C 1793.25,824.079 1786.09,831.243 1777.25,831.243 C 1768.41,831.243 1761.25,824.079 1761.25,815.243 C 1761.25,806.407 1768.41,799.243 1777.25,799.243 Z " fill="none" fill-rule="evenodd" id="dp_path005" stroke="black" stroke-linecap="round" stroke-linejoin="round" stroke-width="12"/><path d="M 1908.29,799.243 C 1917.12,799.243 1924.29,806.407 1924.29,815.243 C 1924.29,824.079 1917.12,831.243 1908.29,831.243 C 1899.45,831.243 1892.29,824.079 1892.29,815.243 C 1892.29,806.407 1899.45,799.243 1908.29,799.243 Z " fill="none" fill-rule="evenodd" id="dp_path006" stroke="black" stroke-linecap="round" stroke-linejoin="round" stroke-width="12"/><path d="M 1810.86,815.241 L 1872.26,815.1" fill="none" fill-rule="evenodd" id="dp_path007" stroke="black" stroke-linecap="round" stroke-linejoin="round" stroke-width="12"/><path d="M 1942.17,787.547 L 1942.17,815.084" fill="none" fill-rule="evenodd" id="dp_path008" stroke="black" stroke-linecap="round" stroke-linejoin="round" stroke-width="12"/></g></svg>